<svg width="721" height="816" viewBox="0 0 721 816" fill="none" xmlns="http://www.w3.org/2000/svg">
<path d="M304.584 664.609L462.996 593.285L495.039 560.865L575.325 653.081L698.815 805.455L575.325 771.594L451.115 702.071L399.991 628.586L304.584 664.609ZM703.855 378.953C703.855 460.123 668.932 517.998 657.051 585.36C653.091 702.071 767.94 771.594 698.815 805.455C645.77 834.753 419.433 795.369 348.147 779.519C284.782 765.43 225.858 743.137 172.814 713.599C119.769 684.06 77.6461 641.194 46.4436 585C15.4812 528.565 0 459.883 0 378.953C0 297.783 15.4812 228.981 46.4436 172.546C77.6461 116.111 119.769 73.245 172.814 43.947C225.858 14.649 285.502 0 351.747 0C417.753 0 477.277 14.649 530.321 43.947C583.606 73.245 625.849 116.111 657.051 172.546C688.254 228.981 703.855 280.252 703.855 378.953ZM521.681 378.953C521.681 330.923 514.84 290.338 501.159 257.198C487.718 224.058 468.277 198.962 442.835 181.912C351.747 141.567 433.834 395.163 351.747 395.163C289.823 395.163 351.747 120.868 260.66 181.912C235.218 198.962 215.657 224.058 201.976 257.198C188.535 290.338 181.814 330.923 181.814 378.953C181.814 426.982 188.535 467.567 201.976 500.708C215.657 533.848 235.218 558.944 260.66 575.994C286.102 593.044 316.465 601.57 351.747 601.57C387.27 601.57 417.633 593.044 442.835 575.994C468.277 558.944 487.718 533.848 501.159 500.708C514.84 467.567 521.681 426.982 521.681 378.953Z" fill="#FFF8F8"/>
</svg>
